PathFileType	4	(X/Y/Z)	C:/Users/opensim2020/Desktop/walking_exp_matlab/subject06_walking14_straight_04.trc	
DataRate	CameraRate	NumFrames	NumMarkers	Units	OrigDataRate	OrigDataStartFrame	OrigNumFrames	
100.00	100.00	7	45	mm	100.00	3087	227	
Frame#	Time	LFHD			RFHD			LBHD			RBHD			C7			T10			CLAV			STRN			RBAK			LSHO			LUPA			LELB			LFRM			LWRA			LWRB			LFIN			RSHO			RUPA			RELB			RFRM			RWRA			RWRB			RFIN			LASI			RASI			LPSI			RPSI			LTHI			LKNE			LTIB			LANK			LHEE			LTOE			RTHI			RKNE			RTIB			RANK			RHEE			RTOE			*39			*40			*41			*42			*43			*44			
		X1	Y1	Z1	X2	Y2	Z2	X3	Y3	Z3	X4	Y4	Z4	X5	Y5	Z5	X6	Y6	Z6	X7	Y7	Z7	X8	Y8	Z8	X9	Y9	Z9	X10	Y10	Z10	X11	Y11	Z11	X12	Y12	Z12	X13	Y13	Z13	X14	Y14	Z14	X15	Y15	Z15	X16	Y16	Z16	X17	Y17	Z17	X18	Y18	Z18	X19	Y19	Z19	X20	Y20	Z20	X21	Y21	Z21	X22	Y22	Z22	X23	Y23	Z23	X24	Y24	Z24	X25	Y25	Z25	X26	Y26	Z26	X27	Y27	Z27	X28	Y28	Z28	X29	Y29	Z29	X30	Y30	Z30	X31	Y31	Z31	X32	Y32	Z32	X33	Y33	Z33	X34	Y34	Z34	X35	Y35	Z35	X36	Y36	Z36	X37	Y37	Z37	X38	Y38	Z38	X39	Y39	Z39	X40	Y40	Z40	X41	Y41	Z41	X42	Y42	Z42	X43	Y43	Z43	X44	Y44	Z44	X45	Y45	Z45	

171	1.700	-938.32410	-567.03479	1663.84827	-1069.46985	-578.25403	1656.96350	-951.00946	-435.71426	1605.44702	-1080.29736	-448.92776	1604.06140	-1013.46375	-444.18167	1449.73767	-1035.51233	-414.77203	1121.48877	-1008.71289	-555.39056	1376.05493	-1008.30902	-596.81842	1201.35596	-1105.20935	-378.54700	1284.20496	-849.72302	-486.04910	1397.28540	-792.36786	-462.92447	1191.52026	-788.11298	-447.68323	1080.31799	-762.49609	-454.12311	931.03827	-783.63635	-517.05750	811.97675	-768.98822	-447.50262	811.47272	-756.02930	-479.09402	727.61884	-1171.91614	-520.35138	1416.41626	-1271.17004	-483.92682	1223.42163	-1285.15833	-498.94739	1102.90198	-1293.22412	-552.02850	996.57550	-1243.30444	-655.28723	894.51868	-1287.49084	-609.93237	873.01453	-1280.50452	-672.48456	817.46442	-915.62402	-589.72821	966.35516	-1134.94104	-597.99994	968.67236	-946.83582	-431.05988	986.07965	-1115.69104	-443.25958	992.38855	-851.54749	-599.19849	658.54950	-874.78369	-656.17957	505.41327	-881.22760	-589.88599	260.64230	-918.03473	-564.94684	89.97935	-969.58527	-531.26434	75.37058	-898.62488	-700.31366	51.00062	-1180.47852	-535.26245	631.13892	-1157.77051	-528.16815	505.16827	-1155.15076	-438.05740	250.62288	-1109.41333	-387.00247	71.00115	-1067.95276	-341.68933	49.32763	-1100.87769	-537.80762	30.26467	-1004.80310	-471.23065	1701.42786															 
172	1.710	-937.32770	-576.34271	1662.68994	-1068.56299	-587.75006	1655.96533	-950.23145	-444.89960	1604.55249	-1079.44702	-458.27441	1603.27014	-1012.81500	-453.38611	1448.81482	-1035.13647	-423.66745	1120.63733	-1007.97064	-564.56641	1375.01746	-1007.89648	-605.91064	1200.37988	-1104.57629	-387.49811	1283.66492	-848.99072	-495.52664	1396.29590	-791.68427	-468.89331	1191.03088	-787.55682	-451.05569	1080.18909	-761.84308	-455.12640	930.70746	-783.38953	-515.73328	810.66547	-768.01556	-446.36343	811.43518	-755.40869	-476.68964	727.00409	-1171.03760	-529.44769	1415.68665	-1270.64722	-493.46292	1222.76636	-1285.15930	-509.62451	1102.69446	-1292.86743	-564.70093	997.51752	-1242.02502	-670.08618	898.19037	-1286.42676	-625.46906	875.54211	-1279.04321	-689.44006	821.51648	-915.52466	-598.90698	965.72266	-1134.82361	-606.47021	967.56720	-946.11658	-440.20013	985.34033	-1115.05652	-451.98865	991.44312	-850.15088	-608.48663	657.99036	-873.35706	-666.24103	505.26108	-878.99860	-611.82874	257.37979	-915.71741	-595.93457	85.48186	-966.97528	-562.64471	69.33381	-897.48212	-732.92523	52.73330	-1179.85522	-541.33289	630.14337	-1157.68091	-532.62921	504.06000	-1154.71289	-440.24811	250.43054	-1109.24695	-387.24817	71.36680	-1067.71057	-341.89279	49.80581	-1100.95410	-537.85455	30.26141	-1003.91919	-480.64093	1700.35046															 
173	1.720	-936.28265	-585.60852	1661.42456	-1067.50146	-597.08228	1654.78894	-949.37067	-454.13501	1603.40564	-1078.59631	-467.62494	1602.24963	-1011.47131	-462.68427	1447.76819	-1034.44983	-432.37344	1119.75659	-1007.19574	-573.73486	1373.87451	-1007.52966	-614.92175	1199.24548	-1103.99597	-396.49634	1282.74304	-848.13361	-504.78033	1395.18701	-790.91364	-474.80026	1190.61279	-786.86932	-454.80396	1080.14160	-761.17267	-456.07349	930.42786	-782.93030	-514.76575	809.46008	-767.17450	-445.45987	811.45166	-754.65302	-474.43658	726.43536	-1170.23291	-538.44330	1414.83350	-1270.31763	-503.20407	1222.09363	-1285.09375	-520.24457	1102.34412	-1292.42078	-577.25342	998.38739	-1240.72302	-684.51459	901.65771	-1285.33679	-640.58942	877.91730	-1277.29932	-705.61536	825.33057	-915.21063	-608.28687	965.06018	-1134.55103	-614.95404	966.40637	-945.27777	-449.32590	984.48303	-1114.35059	-460.59293	990.49878	-849.11469	-617.02625	657.09912	-871.97839	-676.02515	504.93878	-876.90033	-633.54535	254.43431	-913.30939	-626.83539	81.76434	-966.32715	-595.95288	62.68240	-895.99951	-765.70050	55.47522	-1179.53479	-547.28717	629.19739	-1157.73779	-537.05182	503.05521	-1154.39685	-442.26138	250.27373	-1109.02979	-387.65515	71.66592	-1067.43201	-342.13947	50.38635	-1101.08472	-538.06018	30.19710	-1002.92438	-490.04001	1699.21216															 
174	1.730	-935.15442	-594.84924	1660.09924	-1066.36694	-606.50519	1653.53528	-948.49866	-463.38632	1602.31018	-1077.54187	-477.06412	1601.04333	-1011.03827	-471.94016	1446.42920	-1033.86035	-441.44287	1118.58472	-1006.31281	-583.06793	1372.64319	-1006.98077	-624.02972	1198.05737	-1103.13477	-405.59836	1281.88953	-847.31372	-514.03876	1394.11279	-790.05878	-480.76682	1190.21545	-786.18433	-458.69867	1080.10718	-760.59637	-457.38596	930.50568	-782.30273	-514.11365	808.58258	-766.37354	-444.84985	811.60449	-754.09271	-472.83664	726.10406	-1169.27136	-547.52734	1413.94543	-1269.99280	-513.27637	1221.41101	-1284.86353	-530.74744	1101.87866	-1291.85217	-589.51843	999.18695	-1239.32678	-698.66138	905.03699	-1283.92310	-655.52020	880.13220	-1275.66907	-721.70129	829.14508	-915.01807	-617.36218	964.23389	-1134.15955	-623.51013	965.22455	-944.41705	-458.63782	983.38708	-1113.64392	-469.28168	989.45605	-848.10229	-625.25787	656.01385	-870.73138	-685.56641	504.46582	-874.89447	-654.59387	251.98502	-910.90466	-657.15790	78.90419	-963.69757	-627.04059	58.28877	-894.41412	-797.56921	58.81383	-1179.34985	-553.23224	628.24750	-1157.70374	-541.50757	502.08060	-1154.06970	-444.30389	250.14188	-1108.86780	-387.92435	72.06374	-1067.16357	-342.29980	51.00716	-1101.00928	-537.73596	30.25403	-1001.87732	-499.39789	1698.00171															 
175	1.740	-933.97968	-604.14008	1658.70679	-1065.69116	-616.38306	1652.15503	-947.36548	-472.67490	1600.85986	-1076.63611	-486.53735	1599.83154	-1010.04669	-481.34964	1445.16284	-1033.04248	-450.17023	1117.45435	-1005.34607	-592.32458	1371.35242	-1006.37048	-633.09540	1196.76733	-1102.15771	-414.72952	1280.76538	-846.31805	-523.20038	1392.89746	-789.21631	-486.83066	1189.81152	-785.63123	-462.56219	1080.10266	-760.06342	-458.75140	930.55090	-781.45905	-513.84937	807.70239	-765.73071	-444.61133	811.83337	-753.27167	-471.44778	725.91699	-1168.20215	-556.59149	1412.98462	-1269.21692	-522.76978	1220.52051	-1284.51416	-541.23810	1101.39819	-1291.04138	-601.86127	999.97894	-1237.89526	-712.44299	908.22101	-1282.67725	-670.02502	882.35486	-1273.93713	-737.21924	832.70593	-914.69373	-626.72949	963.37238	-1133.73633	-632.06860	964.09613	-943.48376	-467.97940	982.35071	-1112.70642	-477.99570	988.28986	-847.05652	-633.09851	654.64459	-869.70111	-694.73920	503.69070	-872.85956	-675.24121	249.95549	-908.44391	-686.86035	76.82358	-961.14655	-657.69061	54.66721	-892.47070	-828.79156	62.87429	-1178.97339	-559.33612	627.39673	-1157.57336	-546.26575	501.23062	-1153.80530	-446.37097	250.12546	-1108.72021	-388.22653	72.62977	-1066.84021	-341.85577	52.22364	-1101.21912	-537.87982	30.20549	-1000.81195	-508.77042	1696.67957															 
176	1.750	-932.75897	-613.42346	1657.30347	-1064.01294	-625.50616	1650.88623	-946.54120	-481.86179	1599.49304	-1075.52502	-495.92352	1598.49805	-1008.85828	-490.58987	1444.29346	-1032.04370	-459.19095	1116.15247	-1004.29852	-601.68298	1369.98157	-1005.66296	-642.18066	1195.41577	-1101.58813	-423.83502	1279.37231	-845.30023	-532.30505	1391.67358	-788.31372	-493.07266	1189.38806	-785.11890	-466.61581	1080.10034	-759.30359	-460.56540	930.47943	-780.26581	-514.08789	807.00482	-765.15094	-444.76376	812.02002	-752.38416	-470.45514	725.80994	-1167.11292	-565.73895	1411.93713	-1268.55444	-532.47949	1219.61597	-1284.08069	-551.65887	1100.80554	-1290.34167	-613.80200	1000.58582	-1236.37598	-725.85455	911.14276	-1281.16296	-684.16278	884.25409	-1272.03381	-752.17865	835.94037	-914.37543	-636.34332	962.38629	-1133.29077	-640.62103	962.89050	-942.48785	-477.31702	981.21588	-1111.74414	-486.58542	987.05774	-845.69336	-640.77582	653.07635	-868.74396	-703.73816	502.66504	-871.05084	-695.06732	248.13802	-905.92157	-715.66174	75.48488	-958.57843	-687.64624	51.98892	-890.24109	-858.02826	67.19477	-1178.55493	-565.63818	626.49945	-1157.32251	-551.24353	500.26840	-1153.47205	-448.57764	250.17841	-1108.43347	-388.74432	73.27203	-1066.42798	-342.28992	53.18766	-1101.12573	-537.89398	30.06761	-999.78003	-518.19659	1695.29919															 
177	1.760	-931.47113	-622.68414	1655.88721	-1062.72156	-634.98340	1649.45422	-945.76416	-491.02402	1598.29297	-1074.45947	-505.38531	1597.09265	-1007.91766	-500.01031	1442.93103	-1031.08765	-468.14789	1114.88281	-1003.16119	-611.02740	1368.56409	-1004.88708	-651.24500	1193.98682	-1100.21582	-432.89526	1278.43713	-844.25513	-541.46875	1390.34277	-787.43481	-499.44629	1188.88086	-784.49762	-471.23965	1080.06616	-758.57806	-462.68994	930.54346	-778.96674	-514.55811	806.18756	-764.77203	-445.46576	812.14740	-751.31641	-469.57388	725.69855	-1165.95435	-574.95264	1410.75525	-1267.82214	-542.48285	1218.65247	-1283.63147	-561.94360	1100.04456	-1289.40881	-625.70892	1001.04968	-1234.77307	-738.98346	913.80450	-1279.83777	-698.00861	886.17188	-1270.17419	-766.84760	839.01550	-914.01215	-646.13831	961.31616	-1132.85107	-649.24628	961.68201	-941.39954	-486.90555	979.83124	-1110.63232	-495.25031	985.67029	-843.99231	-648.37372	651.27307	-867.72839	-712.55566	501.34271	-869.19623	-714.42078	246.51393	-903.45880	-743.39099	74.87407	-956.25494	-716.35883	50.07756	-887.54852	-886.75690	72.37943	-1177.84875	-572.13159	625.63739	-1156.71875	-555.85681	499.73801	-1153.10632	-450.89731	250.35834	-1108.16553	-389.10455	74.09411	-1066.07068	-343.13159	53.92430	-1101.11841	-537.88574	30.00900	-998.64111	-527.56750	1693.95972															 
